<?xml version="1.0"?>
<svg width="709" height="872" xmlns="http://www.w3.org/2000/svg" xmlns:svg="http://www.w3.org/2000/svg" clip-rule="evenodd" fill-rule="evenodd" version="1.1" xml:space="preserve">
 <g class="layer">
  <title>Layer 1</title>
  <g id="layer1" transform="matrix(1 0 0 1 0 0) matrix(1 0 0 1 -331.91 317.002)">
   <g id="g6014">
    <path d="m914.62,-20.75l-2.45,0l-4.9,-7.35c-7.34,-2.45 -14.69,0 -17.14,-7.34c-4.89,-2.45 -17.13,0 -19.58,-4.9c-4.9,-4.89 -12.24,-2.45 -14.69,-4.89c-9.8,-2.45 -14.69,-9.8 -22.04,-9.8c-4.89,-4.89 -12.24,-2.45 -17.14,-7.34l-2.44,2.45c-19.59,-4.9 -39.18,-4.9 -61.21,-4.9l-9.8,0c-19.58,2.45 -39.17,7.34 -58.76,9.79c-2.45,0 -4.89,0 -7.34,2.45c-22.04,12.24 -41.62,22.03 -61.21,34.28c-9.79,4.89 -17.14,9.79 -26.93,14.69l0,-306.05l2.45,-7.34l323.18,0l0,296.25z" fill="rgb(32,86,173)" fill-rule="nonzero" id="path4928"/>
    <path d="m655.09,-309.66c17.14,4.9 22.04,17.14 26.93,31.83c0,4.9 0,12.24 2.45,19.59c0,19.58 0,41.62 -7.34,61.21c0,2.45 0,4.89 -2.45,7.34c0,2.45 -4.9,4.9 -4.9,7.35c-4.89,9.79 -14.69,17.14 -26.93,17.14l-44.07,0l0,-144.46l56.31,0z" fill="white" id="path4930"/>
    <path d="m708.96,-309.66c4.89,31.83 9.79,61.21 14.69,90.59c0,-4.89 0,-12.24 2.45,-19.59l9.79,-71l29.38,0c2.45,31.83 7.34,58.76 9.79,88.14l0,2.45c4.9,-29.38 9.8,-58.76 14.69,-90.59l24.49,0c-7.35,48.97 -14.69,97.94 -24.49,144.46l-26.93,0l-12.24,-90.59l-2.45,0c-4.9,26.93 -7.35,61.21 -12.24,90.59c-7.35,2.44 -17.14,0 -26.93,0l-24.49,-142.01l0,-2.45l24.49,0z" fill="white" fill-rule="nonzero" id="path4932"/>
    <path d="m880.34,-309.66c22.04,4.9 26.93,26.93 29.38,44.07c-2.45,2.45 -2.45,4.9 0,7.35c0,22.03 0,48.97 -9.79,68.55c0,2.45 -2.45,2.45 -2.45,4.9c-7.35,9.79 -17.14,19.59 -34.28,19.59l-39.17,0l0,-144.46l56.31,0z" fill="white" fill-rule="nonzero" id="path4934"/>
    <path d="m655.09,-268.04c7.35,22.04 9.8,56.32 -9.79,71.01c-7.35,2.45 -14.69,0 -22.04,2.45l0,-83.25c12.25,0 26.94,-2.45 31.83,9.79z" fill="rgb(32,86,173)" fill-rule="nonzero" id="path4936"/>
    <path d="m880.34,-268.04c4.9,22.04 7.35,48.97 -4.9,66.11c-4.89,9.79 -17.13,4.9 -26.93,7.35l0,-83.25c12.24,0 26.93,-2.45 31.83,9.79z" fill="rgb(32,86,173)" fill-rule="nonzero" id="path4938"/>
    <path d="m750.58,-15.86c22.03,9.8 48.97,12.25 73.45,22.04c14.69,7.35 26.93,14.69 39.17,26.93c4.9,0 9.8,2.45 12.24,4.9c12.25,9.79 26.94,14.69 39.18,24.48c0,-24.48 0,-51.41 2.45,-78.34c0,-2.45 2.44,-0.01 7.34,-0.01c2.45,0 -2.45,9.8 4.9,7.35c2.45,4.9 9.79,4.9 14.69,7.34c19.59,19.59 34.27,41.63 51.41,61.21c2.45,4.9 7.35,4.9 4.9,12.25c0,4.89 7.34,4.89 7.34,9.79l2.45,4.9l14.69,22.03c-2.44,2.45 -4.89,4.9 -2.44,9.8c2.44,0 2.44,0 4.89,-2.45c0,4.89 0,9.79 4.9,12.24c0,4.9 -2.45,12.24 2.45,12.24c2.45,2.45 -2.45,2.45 0,4.9c0,2.45 2.45,4.89 4.89,7.34c0,2.45 2.45,4.9 0,7.35c0,0 -4.89,2.45 0,4.89c2.45,2.45 -2.44,7.35 0,12.24c-2.44,9.8 2.45,19.59 -2.44,26.94c-2.45,9.79 -4.9,19.58 -9.8,31.83c2.45,0 0,2.44 0,2.44l0,24.49c-4.89,14.69 -14.69,26.93 -12.24,44.07c-2.45,9.79 -7.35,17.14 -9.79,26.93c-7.35,7.35 -12.24,14.69 -14.69,24.48c-7.35,12.25 -14.69,22.04 -14.69,36.73c-9.8,17.14 -19.59,36.72 -34.28,51.41c-9.79,4.9 -17.14,12.25 -24.48,17.14c0,2.45 0,2.45 -2.45,2.45l0,-12.24c-2.45,0 -2.45,-2.45 0,-2.45c-2.45,-2.45 0,-7.34 0,-9.79l0,-17.14c-2.45,0 0,-4.9 -2.45,-4.9c-9.79,7.35 -14.69,22.04 -26.93,26.93c-34.28,14.69 -66.11,31.83 -107.73,31.83c-4.9,4.9 -12.24,9.8 -22.03,9.8c-7.35,0 -17.14,0 -22.04,4.89c-17.14,2.45 -34.28,7.35 -53.86,9.8c-2.45,0 -4.9,0 -4.9,2.44c0,0 0,2.45 2.45,4.9c0,2.45 -2.45,2.45 -4.9,4.9c-14.69,-4.9 -19.59,-22.04 -36.72,-17.14c-9.8,2.45 -2.45,-9.79 -9.8,-7.35l-39.17,0l0,-132.21c0,0 0,-2.44 2.45,-2.44c4.89,7.34 17.14,7.34 26.93,12.24c14.69,2.45 29.38,9.79 48.97,7.34c2.44,0 7.34,7.35 12.24,2.45c2.45,2.45 7.34,-2.45 9.79,2.45c0,2.45 4.9,0 7.35,2.45c14.69,-4.9 31.83,-9.8 48.96,-9.8c7.35,-4.89 14.69,-9.79 24.49,-12.24c17.14,-4.89 34.27,-12.24 44.07,-26.93c14.69,-17.14 34.27,-31.83 46.52,-53.86c9.79,-17.14 17.13,-39.18 17.13,-61.21l0,-9.8c0,-29.38 -14.69,-53.86 -29.38,-75.89c-19.58,-22.04 -41.62,-44.08 -73.45,-46.52l-29.38,0c-2.45,0 0,7.34 -4.89,4.89c-7.35,-2.45 -12.24,4.9 -19.59,2.45c-12.24,4.9 -24.48,12.24 -36.73,17.14c-4.89,14.69 -24.48,17.14 -26.93,34.28c-7.34,9.79 -12.24,19.58 -14.69,31.82c0,14.69 -2.45,29.38 4.9,39.18c7.34,12.24 17.14,24.48 31.83,29.38c14.69,0 31.83,2.45 41.62,-4.9c12.24,-4.89 24.48,-12.24 31.83,-22.03c2.45,-9.8 -2.45,-17.14 -7.35,-24.49c0,-2.45 0,-4.89 -2.45,-4.89c-7.34,0 -14.68,0 -19.58,-7.35c0,-7.34 2.45,-14.69 7.34,-17.14c7.35,-4.89 12.24,-9.79 22.04,-7.34c2.45,-2.45 4.9,2.45 9.79,0c24.49,0 36.73,24.48 44.07,44.07c4.9,14.69 12.24,31.83 7.35,48.97c-7.35,19.58 -12.24,39.17 -26.93,53.86c-24.49,17.14 -51.42,26.93 -78.35,34.28c-24.49,2.45 -48.97,2.45 -68.56,-4.9c-17.13,-7.34 -34.27,-14.69 -48.96,-26.93l-2.45,0l0,41.62c-19.59,-7.34 -41.62,-22.03 -44.07,-46.52c-2.45,-2.45 -7.35,0 -7.35,-2.45c0,0 0,-4.89 -2.45,-4.89c-4.89,-2.45 -4.89,-9.8 -12.24,-9.8c-2.44,-2.45 0,-4.89 0,-7.34c-9.79,-19.59 -22.03,-39.18 -31.82,-58.76l0,-9.8c0,-4.89 -2.45,-19.58 4.89,-24.48c4.9,0 4.9,4.9 7.35,7.34c4.89,2.45 12.24,4.9 17.14,2.45c0,-4.89 -4.9,-7.34 -7.35,-9.79c-2.45,-2.45 -4.9,-9.79 -9.79,-7.35c-7.35,2.45 -7.35,-7.34 -14.69,-2.44c-2.45,-29.38 9.79,-51.42 17.14,-73.45c12.24,-31.83 31.82,-58.76 53.86,-80.8c7.34,-2.45 12.24,-7.34 14.69,-12.24c4.9,-4.9 9.79,-7.35 14.69,-7.35l2.45,0l0,41.63c2.45,2.44 7.34,0 9.79,-2.45c12.24,-7.35 24.48,-14.69 36.73,-22.04c4.89,-4.89 9.79,-7.34 14.69,-9.79c14.69,-9.8 36.72,-12.24 53.86,-19.59c9.79,-2.45 22.04,-4.9 29.38,-7.34c7.34,-2.45 9.79,4.89 17.14,2.44zm171.38,88.15c-2.45,-2.45 -4.89,-4.9 -7.34,-4.9l2.45,345.22c2.44,-4.9 4.89,-9.8 9.79,-12.24c22.03,-36.73 39.17,-73.45 48.97,-117.53c2.44,-22.03 0,-51.41 0,-80.79c-2.45,-9.8 -4.9,-24.49 -2.45,-34.28c-9.79,-36.72 -26.93,-68.55 -51.42,-95.48zm-335.42,232.59l0,-252.18c-17.14,17.14 -31.83,36.72 -44.07,58.76c-4.9,0 -2.45,2.45 -2.45,4.9c-7.35,19.58 -17.14,36.72 -19.59,58.76c0,12.24 -2.44,29.38 4.9,39.17c9.79,31.83 26.93,63.66 56.31,88.14c0,0 2.45,2.45 4.9,2.45z" fill="rgb(32,86,173)" id="path4940"/>
    <path d="m410.26,118.81c-2.45,7.34 4.89,9.79 2.45,14.69c-4.9,2.44 -9.8,2.44 -12.25,7.34c2.45,4.9 -9.79,9.79 0,12.24c0,2.45 -2.44,4.9 -2.44,7.35c-2.45,0 -4.9,-2.45 -4.9,0c-7.35,4.89 -4.9,17.13 -7.35,24.48c2.45,4.9 7.35,-2.45 7.35,4.9c2.45,4.89 0,12.24 -2.45,17.13c-2.45,9.8 -2.45,24.49 0,36.73c0,0 2.45,0 2.45,2.45c4.9,31.83 14.69,61.21 24.48,93.04c2.45,7.34 7.35,14.69 14.69,17.14c0,17.13 9.8,31.82 22.04,39.17c4.9,7.34 2.45,17.14 7.34,22.03c7.35,12.25 19.59,24.49 31.83,31.83c7.35,4.9 2.45,12.24 2.45,19.59c0,4.9 -7.34,2.45 -9.79,7.34c-17.14,0 -29.38,-4.89 -36.73,-12.24c-9.79,-9.79 -24.48,-14.69 -31.83,-26.93c-14.69,-24.48 -39.17,-41.62 -51.41,-68.55c-9.8,-12.24 -17.14,-26.93 -22.04,-41.62c-4.9,-14.69 -9.79,-29.39 -12.24,-46.52l0,-39.18c0,-12.24 4.9,-19.58 9.79,-29.38c4.9,-2.45 2.45,-9.79 7.35,-12.24c4.9,-9.79 14.69,-12.24 17.14,-22.04c2.45,-2.44 0,-9.79 4.89,-9.79c7.35,0 4.9,-9.79 7.35,-12.24c7.34,-14.69 19.59,-22.03 26.93,-36.72c0,0 4.9,-2.45 4.9,0z" fill="rgb(32,86,173)" fill-rule="nonzero" id="path4946"/>
    <path d="m914.62,554.61l-328.08,0c-2.45,-14.69 -2.45,-24.48 0,-39.17c2.45,-2.45 7.34,0 12.24,2.45c2.45,2.44 9.79,2.44 12.24,4.89c9.8,0 14.69,7.35 24.49,4.9c12.24,-2.45 22.03,-9.79 36.72,-12.24c2.45,0 4.9,0 7.35,2.45c0,9.79 9.79,7.34 17.14,9.79c14.68,7.34 36.72,4.9 53.86,4.9c17.14,-2.45 31.83,-7.35 46.52,-12.25c22.03,-7.34 41.62,-12.24 63.65,-19.58c7.35,-7.35 19.59,-9.8 26.94,-14.69c4.89,-7.35 9.79,-12.24 17.14,-14.69c2.44,0 7.34,-7.35 9.79,-7.35l0,90.59z" fill="rgb(32,86,173)" fill-rule="nonzero" id="path4948"/>
    <path d="m515.54,471.37c2.45,2.45 4.89,0 7.34,2.45c12.24,-2.45 29.38,-2.45 34.28,12.24c2.45,2.45 0,9.79 4.89,12.24c7.35,0 14.7,-7.35 24.49,-4.9c0,7.35 0,14.69 -2.45,19.59c-4.9,-2.45 -9.79,-2.45 -14.69,-7.35c-4.9,0 -7.35,4.9 -12.24,4.9c-9.79,0 -24.49,2.45 -34.28,-2.45c-9.79,-7.34 -19.58,-12.24 -26.93,-19.58c0,-7.35 4.9,-9.8 7.35,-14.69c4.89,-2.45 7.34,-2.45 12.24,-2.45z" fill="rgb(32,86,173)" fill-rule="nonzero" id="path4950"/>
   </g>
  </g>
  <text fill="#ff7f00" font-family="Cursive" font-size="40" font-weight="bold" id="svg_3" stroke="#000000" stroke-width="0" style="cursor: move;" text-anchor="middle" transform="rotate(-8.50832 349.448 358.484) matrix(2.24432 0 0 1.35984 -784.731 -115.872)" x="505.36" xml:space="preserve" y="365">Powered</text>
  <text fill="#ff7f00" font-family="Cursive" font-size="40" font-weight="bold" id="svg_4" stroke="#000000" stroke-width="0" text-anchor="middle" transform="rotate(-6.46989 374.943 465)" x="374.5" xml:space="preserve" y="481">By</text>
  <text fill="#ff7f00" font-family="Cursive" font-size="60" font-weight="bold" id="svg_5" stroke="#000000" stroke-width="0" text-anchor="middle" transform="rotate(4.61065 372.5 598.5)" x="372.5" xml:space="preserve" y="623">Bright Sky API</text>
 </g>
</svg>