<?xml version="1.0" encoding="UTF-8" standalone="no"?>
<!DOCTYPE svg PUBLIC "-//W3C//DTD SVG 1.1//EN" "http://www.w3.org/Graphics/SVG/1.1/DTD/svg11.dtd">
<svg width="100%" height="100%" viewBox="0 0 709 872" version="1.1" xmlns="http://www.w3.org/2000/svg" xmlns:xlink="http://www.w3.org/1999/xlink" xml:space="preserve" xmlns:serif="http://www.serif.com/" style="fill-rule:evenodd;clip-rule:evenodd;stroke-miterlimit:3.864;">
    <g id="layer1" transform="matrix(1,0,0,1,-331.91,317.002)">
        <g id="g6014">
            <path id="path4928" d="M914.618,-20.751L912.17,-20.751L907.273,-28.096C899.928,-30.545 892.583,-28.096 890.135,-35.441C885.238,-37.89 872.996,-35.441 870.548,-40.338C865.651,-45.235 858.306,-42.786 855.858,-45.235C846.064,-47.683 841.167,-55.028 833.822,-55.028C828.926,-59.925 821.581,-57.477 816.684,-62.373L814.236,-59.925C794.649,-64.822 775.062,-64.822 753.027,-64.822L743.233,-64.822C723.647,-62.373 704.06,-57.477 684.473,-55.028C682.025,-55.028 679.576,-55.028 677.128,-52.58C655.093,-40.338 635.506,-30.545 615.919,-18.303C606.126,-13.406 598.781,-8.51 588.987,-3.613L588.987,-309.657L591.436,-317.002L914.618,-317.002L914.618,-20.751Z" style="fill:rgb(32,86,173);fill-rule:nonzero;"/>
            <path id="path4930" d="M655.093,-309.657C672.231,-304.76 677.128,-292.518 682.025,-277.828C682.025,-272.932 682.025,-265.586 684.473,-258.241C684.473,-238.655 684.473,-216.619 677.128,-197.033C677.128,-194.584 677.128,-192.136 674.68,-189.687C674.68,-187.239 669.783,-184.791 669.783,-182.343C664.886,-172.549 655.093,-165.204 642.851,-165.204L598.781,-165.204L598.781,-309.657L655.093,-309.657Z" style="fill:white;"/>
            <path id="path4932" d="M708.957,-309.657C713.853,-277.828 718.75,-248.448 723.647,-219.068C723.647,-223.964 723.647,-231.309 726.095,-238.655L735.888,-309.657L765.269,-309.657C767.717,-277.828 772.614,-250.896 775.062,-221.516L775.062,-219.068C779.959,-248.448 784.855,-277.828 789.752,-309.657L814.236,-309.657C806.891,-260.69 799.546,-211.723 789.752,-165.204L762.82,-165.204L750.578,-255.793L748.13,-255.793C743.233,-228.861 740.785,-194.584 735.888,-165.204C728.543,-162.756 718.75,-165.204 708.957,-165.204L684.473,-307.208L684.473,-309.657L708.957,-309.657Z" style="fill:white;fill-rule:nonzero;"/>
            <path id="path4934" d="M880.341,-309.657C902.376,-304.76 907.273,-282.725 909.721,-265.586C907.273,-263.138 907.273,-260.69 909.721,-258.241C909.721,-236.206 909.721,-209.274 899.928,-189.687C899.928,-187.239 897.48,-187.239 897.48,-184.791C890.135,-174.997 880.341,-165.204 863.203,-165.204L824.029,-165.204L824.029,-309.657L880.341,-309.657Z" style="fill:white;fill-rule:nonzero;"/>
            <path id="path4936" d="M655.093,-268.035C662.438,-246 664.886,-211.723 645.299,-197.033C637.954,-194.584 630.609,-197.033 623.264,-194.584L623.264,-277.828C635.506,-277.828 650.196,-280.276 655.093,-268.035Z" style="fill:rgb(32,86,173);fill-rule:nonzero;"/>
            <path id="path4938" d="M880.341,-268.035C885.238,-246 887.686,-219.068 875.444,-201.929C870.548,-192.136 858.306,-197.033 848.512,-194.584L848.512,-277.828C860.754,-277.828 875.444,-280.276 880.341,-268.035Z" style="fill:rgb(32,86,173);fill-rule:nonzero;"/>
            <path id="path4940" d="M750.578,-15.855C772.614,-6.061 799.546,-3.613 824.029,6.181C838.719,13.526 850.961,20.871 863.203,33.112C868.099,33.112 872.996,35.561 875.444,38.009C887.686,47.803 902.376,52.699 914.618,62.493C914.618,38.009 914.618,11.077 917.066,-15.855C917.066,-18.303 919.515,-15.855 924.411,-15.855C926.86,-15.855 921.963,-6.061 929.308,-8.51C931.756,-3.613 939.101,-3.613 943.998,-1.165C963.585,18.422 978.275,40.458 995.414,60.044C997.862,64.941 1002.76,64.941 1000.31,72.286C1000.31,77.183 1007.65,77.183 1007.65,82.079L1010.1,86.976L1024.79,109.011C1022.35,111.46 1019.9,113.908 1022.35,118.805C1024.79,118.805 1024.79,118.805 1027.24,116.356C1027.24,121.253 1027.24,126.15 1032.14,128.598C1032.14,133.495 1029.69,140.84 1034.59,140.84C1037.04,143.288 1032.14,143.288 1034.59,145.737C1034.59,148.185 1037.04,150.633 1039.48,153.082C1039.48,155.53 1041.93,157.978 1039.48,160.427C1039.48,160.427 1034.59,162.875 1039.48,165.323C1041.93,167.772 1037.04,172.668 1039.48,177.565C1037.04,187.359 1041.93,197.152 1037.04,204.497C1034.59,214.29 1032.14,224.084 1027.24,236.326C1029.69,236.326 1027.24,238.774 1027.24,238.774L1027.24,263.257C1022.35,277.948 1012.55,290.189 1015,307.328C1012.55,317.121 1007.65,324.466 1005.21,334.26C997.862,341.605 992.965,348.95 990.517,358.743C983.172,370.985 975.827,380.778 975.827,395.468C966.033,412.607 956.24,432.194 941.55,446.884C931.756,451.78 924.411,459.126 917.066,464.022C917.066,466.471 917.066,466.471 914.618,466.471L914.618,454.229C912.17,454.229 912.17,451.78 914.618,451.78C912.17,449.332 914.618,444.435 914.618,441.987L914.618,424.849C912.17,424.849 914.618,419.952 912.17,419.952C902.376,427.297 897.48,441.987 885.238,446.884C850.961,461.574 819.132,478.712 777.51,478.712C772.614,483.609 765.269,488.506 755.475,488.506C748.13,488.506 738.337,488.506 733.44,493.403C716.302,495.851 699.163,500.747 679.576,503.196C677.128,503.196 674.68,503.196 674.68,505.644C674.68,505.644 674.68,508.093 677.128,510.541C677.128,512.989 674.68,512.989 672.231,515.438C657.541,510.541 652.644,493.403 635.506,498.299C625.713,500.747 633.058,488.506 625.713,490.954L586.539,490.954L586.539,358.743C586.539,358.743 586.539,356.295 588.987,356.295C593.884,363.64 606.126,363.64 615.919,368.537C630.609,370.985 645.299,378.33 664.886,375.882C667.334,375.882 672.231,383.227 677.128,378.33C679.576,380.778 684.473,375.882 686.921,380.778C686.921,383.227 691.818,380.778 694.266,383.227C708.957,378.33 726.095,373.433 743.233,373.433C750.578,368.537 757.923,363.64 767.717,361.191C784.855,356.295 801.994,348.95 811.787,334.26C826.477,317.121 846.064,302.431 858.306,280.396C868.099,263.257 875.444,241.222 875.444,219.187L875.444,209.394C875.444,180.013 860.754,155.53 846.064,133.495C826.477,111.46 804.442,89.424 772.614,86.976L743.233,86.976C740.785,86.976 743.233,94.321 738.337,91.873C730.992,89.424 726.095,96.77 718.75,94.321C706.508,99.218 694.266,106.563 682.025,111.46C677.128,126.15 657.541,128.598 655.093,145.737C647.748,155.53 642.851,165.323 640.403,177.565C640.403,192.255 637.954,206.945 645.299,216.739C652.644,228.981 662.438,241.222 677.128,246.119C691.818,246.119 708.957,248.567 718.75,241.222C730.992,236.326 743.233,228.981 750.578,219.187C753.027,209.394 748.13,202.049 743.233,194.704C743.233,192.255 743.233,189.807 740.785,189.807C733.44,189.807 726.095,189.807 721.198,182.462C721.198,175.117 723.647,167.772 728.543,165.323C735.888,160.427 740.785,155.53 750.578,157.978C753.027,155.53 755.475,160.427 760.372,157.978C784.855,157.978 797.097,182.462 804.442,202.049C809.339,216.739 816.684,233.877 811.787,251.016C804.442,270.602 799.546,290.189 784.855,304.879C760.372,322.018 733.44,331.811 706.508,339.156C682.025,341.605 657.541,341.605 637.954,334.26C620.816,326.915 603.677,319.57 588.987,307.328L586.539,307.328L586.539,348.95C566.952,341.605 544.917,326.915 542.469,302.431C540.02,299.983 535.124,302.431 535.124,299.983C535.124,299.983 535.124,295.086 532.675,295.086C527.779,292.638 527.779,285.293 520.433,285.293C517.985,282.844 520.433,280.396 520.433,277.948C510.64,258.361 498.398,238.774 488.605,219.187L488.605,209.394C488.605,204.497 486.156,189.807 493.502,184.91C498.398,184.91 498.398,189.807 500.847,192.255C505.743,194.704 513.088,197.152 517.985,194.704C517.985,189.807 513.088,187.359 510.64,184.91C508.192,182.462 505.743,175.117 500.847,177.565C493.502,180.013 493.502,170.22 486.156,175.117C483.708,145.737 495.95,123.701 503.295,101.666C515.537,69.838 535.124,42.906 557.159,20.871C564.504,18.422 569.401,13.526 571.849,8.629C576.745,3.732 581.642,1.284 586.539,1.284L588.987,1.284L588.987,42.906C591.436,45.354 596.332,42.906 598.781,40.458C611.022,33.112 623.264,25.767 635.506,18.422C640.403,13.526 645.299,11.077 650.196,8.629C664.886,-1.165 686.921,-3.613 704.06,-10.958C713.853,-13.406 726.095,-15.855 733.44,-18.303C740.785,-20.751 743.233,-13.406 750.578,-15.855ZM921.963,72.286C919.515,69.838 917.066,67.389 914.618,67.389L917.066,412.607C919.515,407.71 921.963,402.814 926.86,400.365C948.895,363.64 966.033,326.915 975.827,282.844C978.275,260.809 975.827,231.429 975.827,202.049C973.378,192.255 970.93,177.565 973.378,167.772C963.585,131.047 946.447,99.218 921.963,72.286ZM586.539,304.879L586.539,52.699C569.401,69.838 554.71,89.424 542.469,111.46C537.572,111.46 540.02,113.908 540.02,116.356C532.675,135.943 522.882,153.082 520.433,175.117C520.433,187.359 517.985,204.497 525.33,214.29C535.124,246.119 552.262,277.948 581.642,302.431C581.642,302.431 584.091,304.879 586.539,304.879Z" style="fill:rgb(32,86,173);"/>
            <path id="path4946" d="M410.258,118.805C407.809,126.15 415.154,128.598 412.706,133.495C407.809,135.943 402.913,135.943 400.464,140.84C402.913,145.737 390.671,150.633 400.464,153.082C400.464,155.53 398.016,157.978 398.016,160.427C395.567,160.427 393.119,157.978 393.119,160.427C385.774,165.323 388.223,177.565 385.774,184.91C388.223,189.807 393.119,182.462 393.119,189.807C395.567,194.704 393.119,202.049 390.671,206.945C388.223,216.739 388.223,231.429 390.671,243.671C390.671,243.671 393.119,243.671 393.119,246.119C398.016,277.948 407.809,307.328 417.603,339.156C420.051,346.501 424.948,353.846 432.293,356.295C432.293,373.433 442.086,388.123 454.328,395.468C459.225,402.814 456.776,412.607 461.673,417.504C469.018,429.745 481.26,441.987 493.502,449.332C500.847,454.229 495.95,461.574 495.95,468.919C495.95,473.816 488.605,471.367 486.156,476.264C469.018,476.264 456.776,471.367 449.431,464.022C439.638,454.229 424.948,449.332 417.603,437.09C402.913,412.607 378.429,395.468 366.187,368.537C356.394,356.295 349.049,341.605 344.152,326.915C339.255,312.225 334.359,297.534 331.91,280.396L331.91,241.222C331.91,228.981 336.807,221.636 341.704,211.842C346.601,209.394 344.152,202.049 349.049,199.6C353.946,189.807 363.739,187.359 366.187,177.565C368.636,175.117 366.187,167.772 371.084,167.772C378.429,167.772 375.981,157.978 378.429,155.53C385.774,140.84 398.016,133.495 405.361,118.805C405.361,118.805 410.258,116.356 410.258,118.805Z" style="fill:rgb(32,86,173);fill-rule:nonzero;"/>
            <path id="path4948" d="M914.618,554.611L586.539,554.611C584.091,539.921 584.091,530.128 586.539,515.438C588.987,512.989 593.884,515.438 598.781,517.886C601.229,520.334 608.574,520.334 611.022,522.783C620.816,522.783 625.713,530.128 635.506,527.679C647.748,525.231 657.541,517.886 672.231,515.438C674.68,515.438 677.128,515.438 679.576,517.886C679.576,527.679 689.37,525.231 696.715,527.679C711.405,535.024 733.44,532.576 750.578,532.576C767.717,530.128 782.407,525.231 797.097,520.334C819.132,512.989 838.719,508.093 860.754,500.747C868.099,493.403 880.341,490.954 887.686,486.057C892.583,478.712 897.48,473.816 904.825,471.367C907.273,471.367 912.17,464.022 914.618,464.022L914.618,554.611Z" style="fill:rgb(32,86,173);fill-rule:nonzero;"/>
            <path id="path4950" d="M515.537,471.367C517.985,473.816 520.433,471.367 522.882,473.816C535.124,471.367 552.262,471.367 557.159,486.057C559.607,488.506 557.159,495.851 562.055,498.299C569.401,498.299 576.745,490.954 586.539,493.403C586.539,500.747 586.539,508.093 584.091,512.989C579.194,510.541 574.297,510.541 569.401,505.644C564.504,505.644 562.055,510.541 557.159,510.541C547.365,510.541 532.675,512.989 522.882,508.093C513.088,500.747 503.295,495.851 495.95,488.506C495.95,481.161 500.847,478.712 503.295,473.816C508.192,471.367 510.64,471.367 515.537,471.367Z" style="fill:rgb(32,86,173);fill-rule:nonzero;"/>
        </g>
    </g>
</svg>
